<?xml version="1.0" encoding="UTF-8"?>
<!DOCTYPE svg PUBLIC "-//W3C//DTD SVG 1.1//EN" "http://www.w3.org/Graphics/SVG/1.1/DTD/svg11.dtd">
<svg xmlns="http://www.w3.org/2000/svg" version="1.1" width="1791px" height="295px" style="shape-rendering:geometricPrecision; text-rendering:geometricPrecision; image-rendering:optimizeQuality; fill-rule:evenodd; clip-rule:evenodd" xmlns:xlink="http://www.w3.org/1999/xlink">
<g><path style="opacity:0.962" fill="#ffffff" d="M 171.5,-0.5 C 173.5,-0.5 175.5,-0.5 177.5,-0.5C 178.548,25.2363 168.548,45.4029 147.5,60C 138.582,65.8127 128.915,67.9794 118.5,66.5C 118.059,38.4158 130.393,17.9158 155.5,5C 160.846,2.83032 166.179,0.996986 171.5,-0.5 Z"/></g>
<g><path style="opacity:0.971" fill="#ffffff" d="M 1790.5,202.5 C 1790.5,210.833 1790.5,219.167 1790.5,227.5C 1784.2,255.65 1767.53,275.15 1740.5,286C 1730.03,290.053 1719.36,292.886 1708.5,294.5C 1698.17,294.5 1687.83,294.5 1677.5,294.5C 1655.49,292.104 1635.82,283.938 1618.5,270C 1602.96,255.229 1594.62,237.063 1593.5,215.5C 1607.17,215.5 1620.83,215.5 1634.5,215.5C 1636.81,234.311 1646.81,247.145 1664.5,254C 1682.84,259.999 1701.17,259.999 1719.5,254C 1742.24,243.687 1751.07,226.187 1746,201.5C 1738.95,180.868 1724.45,169.702 1702.5,168C 1687.17,167.5 1671.84,167.333 1656.5,167.5C 1656.33,156.495 1656.5,145.495 1657,134.5C 1671.09,133.676 1685.26,133.176 1699.5,133C 1728.57,127.938 1741.74,110.771 1739,81.5C 1735.78,67.2774 1727.28,57.7774 1713.5,53C 1692.98,47.2508 1673.65,49.9175 1655.5,61C 1645.79,69.2514 1640.46,79.7514 1639.5,92.5C 1626.17,92.5 1612.83,92.5 1599.5,92.5C 1604.03,51.1294 1626.7,25.9627 1667.5,17C 1695.78,11.5269 1722.78,15.1935 1748.5,28C 1774.96,45.0979 1785.46,69.2645 1780,100.5C 1771.31,127.187 1753.14,143.353 1725.5,149C 1759.89,151.805 1781.55,169.639 1790.5,202.5 Z"/></g>
<g><path style="opacity:0.963" fill="#ffffff" d="M 305.5,17.5 C 325.683,17.5127 334.849,27.5127 333,47.5C 325.487,64.2295 313.32,68.7295 296.5,61C 285.376,51.0621 283.542,39.5621 291,26.5C 295.053,22.066 299.886,19.066 305.5,17.5 Z"/></g>
<g><path style="opacity:0.975" fill="#ffffff" d="M 375.5,19.5 C 412.168,19.3333 448.835,19.5 485.5,20C 527.031,24.2086 553.198,46.3753 564,86.5C 571.657,123.076 561.823,153.91 534.5,179C 523.118,187.354 510.451,193.021 496.5,196C 470.534,197.434 444.534,197.934 418.5,197.5C 418.5,228.167 418.5,258.833 418.5,289.5C 404.167,289.5 389.833,289.5 375.5,289.5C 375.5,199.5 375.5,109.5 375.5,19.5 Z M 418.5,55.5 C 438.862,55.1312 459.195,55.6312 479.5,57C 507.945,62.4601 522.278,79.7935 522.5,109C 522.137,139.028 507.137,156.362 477.5,161C 457.836,161.5 438.169,161.667 418.5,161.5C 418.5,126.167 418.5,90.8333 418.5,55.5 Z"/></g>
<g><path style="opacity:0.975" fill="#ffffff" d="M 593.5,19.5 C 607.167,19.5 620.833,19.5 634.5,19.5C 634.333,54.8349 634.5,90.1682 635,125.5C 643.235,108.604 656.402,97.437 674.5,92C 696.64,86.5115 717.64,89.1782 737.5,100C 754.634,112.753 764.134,129.92 766,151.5C 766.5,197.499 766.667,243.499 766.5,289.5C 752.833,289.5 739.167,289.5 725.5,289.5C 725.667,248.499 725.5,207.499 725,166.5C 723.589,139.589 709.423,125.589 682.5,124.5C 659.016,125.496 643.85,137.163 637,159.5C 635.527,202.794 635.027,246.127 635.5,289.5C 621.5,289.5 607.5,289.5 593.5,289.5C 593.5,199.5 593.5,109.5 593.5,19.5 Z"/></g>
<g><path style="opacity:0.961" fill="#ffffff" d="M 1511.5,19.5 C 1525.41,19.1767 1539.25,19.5101 1553,20.5C 1553.5,110.166 1553.67,199.833 1553.5,289.5C 1539.5,289.5 1525.5,289.5 1511.5,289.5C 1511.67,213.499 1511.5,137.499 1511,61.5C 1493.25,74.2895 1475.42,86.9562 1457.5,99.5C 1456.33,85.5119 1456.17,71.5119 1457,57.5C 1475.32,44.9342 1493.49,32.2675 1511.5,19.5 Z"/></g>
<g><path style="opacity:0.991" fill="#ffffff" d="M -0.5,164.5 C -0.5,160.167 -0.5,155.833 -0.5,151.5C 0.43055,127.217 9.43055,106.383 26.5,89C 41.6069,75.6307 59.2736,69.6307 79.5,71C 93.4592,74.7643 107.293,78.931 121,83.5C 132.623,80.07 144.123,76.2367 155.5,72C 182.793,66.1006 206.293,72.9339 226,92.5C 227.697,94.699 229.197,97.0324 230.5,99.5C 201.797,119.444 192.963,146.111 204,179.5C 211.667,195 223.167,206.667 238.5,214.5C 229.26,241.212 214.593,264.379 194.5,284C 185.527,290.656 175.527,292.989 164.5,291C 156.025,288.397 147.692,285.397 139.5,282C 128.413,279.771 117.413,280.105 106.5,283C 96.8226,287.782 86.656,290.948 76,292.5C 63.4747,290.315 53.1414,284.315 45,274.5C 18.22,242.665 3.0533,205.999 -0.5,164.5 Z"/></g>
<g><path style="opacity:0.976" fill="#ffffff" d="M 872.5,89.5 C 930.821,84.6858 966.321,110.686 979,167.5C 983.856,196.506 979.856,224.173 967,250.5C 948.706,279.57 922.206,293.904 887.5,293.5C 837.185,292.018 806.685,266.685 796,217.5C 790.427,187.446 794.427,158.779 808,131.5C 823.014,107.574 844.514,93.574 872.5,89.5 Z M 878.5,123.5 C 903.568,120.943 921.402,130.943 932,153.5C 935.093,160.871 937.093,168.538 938,176.5C 940.772,197.099 937.772,216.765 929,235.5C 913.285,258.07 892.452,264.57 866.5,255C 851.928,247.072 842.761,234.905 839,218.5C 832.887,193.635 835.22,169.635 846,146.5C 853.716,134.263 864.549,126.596 878.5,123.5 Z"/></g>
<g><path style="opacity:0.966" fill="#ffffff" d="M 1099.5,89.5 C 1150.62,85.7881 1177.45,109.455 1180,160.5C 1180.5,203.499 1180.67,246.499 1180.5,289.5C 1166.5,289.5 1152.5,289.5 1138.5,289.5C 1138.97,244.466 1138.47,199.466 1137,154.5C 1131.78,134.283 1118.61,124.283 1097.5,124.5C 1071.86,125.981 1056.69,139.314 1052,164.5C 1051.5,206.165 1051.33,247.832 1051.5,289.5C 1037.5,289.5 1023.5,289.5 1009.5,289.5C 1009.5,223.833 1009.5,158.167 1009.5,92.5C 1022.83,92.5 1036.17,92.5 1049.5,92.5C 1049.33,103.172 1049.5,113.839 1050,124.5C 1060.51,104.329 1077.01,92.6628 1099.5,89.5 Z"/></g>
<g><path style="opacity:0.975" fill="#ffffff" d="M 1283.5,89.5 C 1345.56,85.727 1380.06,114.727 1387,176.5C 1387.5,184.827 1387.67,193.16 1387.5,201.5C 1341.17,201.5 1294.83,201.5 1248.5,201.5C 1249.71,242.546 1270.71,261.713 1311.5,259C 1327.72,256.26 1339.06,247.427 1345.5,232.5C 1358.82,231.334 1372.15,231.167 1385.5,232C 1379.18,258.662 1363.18,276.996 1337.5,287C 1310.58,296.177 1283.91,295.51 1257.5,285C 1234.33,273.154 1219.16,254.654 1212,229.5C 1205.19,201.202 1206.19,173.202 1215,145.5C 1227.57,114.087 1250.4,95.4204 1283.5,89.5 Z M 1291.5,122.5 C 1324.78,122.271 1343.11,138.771 1346.5,172C 1314.17,172.5 1281.84,172.667 1249.5,172.5C 1251.71,145.644 1265.71,128.977 1291.5,122.5 Z"/></g>
<g><path style="opacity:0.98" fill="#ffffff" d="M 289.5,92.5 C 303.167,92.5 316.833,92.5 330.5,92.5C 330.5,158.167 330.5,223.833 330.5,289.5C 316.833,289.5 303.167,289.5 289.5,289.5C 289.5,223.833 289.5,158.167 289.5,92.5 Z"/></g>
</svg>
